<svg xmlns="http://www.w3.org/2000/svg" width="1733" height="720" viewBox="0 0 1733 720" version="1.1" class="logo-pasarkode"><path d="M 768.490 23.175 C 768.213 23.904, 768.101 79.625, 768.243 147 L 768.500 269.500 791.750 269.768 L 815 270.037 815 234.518 L 815 199 839.042 199 C 856.968 199, 865.013 198.602, 870.665 197.434 C 913.763 188.532, 942.046 154.321, 941.987 111.162 C 941.956 88.143, 933.886 66.932, 918.989 50.713 C 907.730 38.455, 893.250 29.850, 876.068 25.207 C 866.506 22.623, 866.469 22.621, 817.747 22.236 C 777.921 21.920, 768.903 22.092, 768.490 23.175 M 133.945 26.470 C 130.365 28.417, 128.317 33.066, 126.443 43.500 C 125.554 48.450, 123.533 59.250, 121.950 67.500 C 120.368 75.750, 117.235 92.175, 114.988 104 C 106.260 149.927, 101.901 172.680, 101.002 177 C 100.486 179.475, 98.673 188.925, 96.971 198 C 95.270 207.075, 93.241 217.650, 92.462 221.500 C 91.683 225.350, 89.225 238.175, 87 250 C 84.775 261.825, 82.306 274.650, 81.513 278.500 C 80.720 282.350, 76.892 302.375, 73.007 323 C 69.121 343.625, 65.302 363.650, 64.519 367.500 C 63.736 371.350, 61.687 381.925, 59.966 391 C 56.999 406.643, 53.790 423.299, 50.525 440 C 49.719 444.125, 47.664 454.925, 45.958 464 C 44.252 473.075, 41.797 485.900, 40.500 492.500 C 37.979 505.341, 34.281 524.670, 24.047 578.500 C 18.659 606.842, 17.976 610.382, 16.517 617.500 C 15.187 623.991, 12.977 635.555, 6.483 670 C 5.083 677.425, 3.216 686.875, 2.333 691 C 1.451 695.125, 0.677 701.137, 0.614 704.360 C 0.505 709.989, 0.655 710.354, 4.417 713.610 C 10.531 718.902, 13.840 718.392, 29.500 709.746 C 41.587 703.071, 59.420 693.514, 78.500 683.484 C 84.550 680.303, 89.950 677.383, 90.500 676.995 C 91.050 676.606, 96.900 673.449, 103.500 669.979 C 110.100 666.509, 124.050 659.082, 134.500 653.476 C 144.950 647.869, 158 640.900, 163.500 637.988 C 169 635.076, 173.950 632.374, 174.500 631.983 C 175.050 631.592, 182.250 627.770, 190.500 623.490 C 198.750 619.211, 205.950 615.392, 206.500 615.004 C 207.050 614.616, 212.450 611.685, 218.500 608.491 C 229.949 602.446, 265.355 583.555, 277.500 577.011 C 281.350 574.936, 294.400 567.957, 306.500 561.500 C 318.600 555.044, 332.100 547.837, 336.500 545.485 C 354.454 535.889, 341.811 537, 433.061 537 L 513.651 537 515.826 534.686 C 519.602 530.666, 518.676 528.064, 507.750 512.005 C 478.740 469.366, 471.411 458.574, 456.467 436.500 C 447.531 423.300, 435.509 405.572, 429.751 397.104 C 423.993 388.637, 413.716 373.475, 406.913 363.411 C 399.472 352.404, 393.738 344.898, 392.522 344.571 C 388.446 343.475, 315.441 343.959, 314.311 345.089 C 313.712 345.688, 310.138 361.986, 306.369 381.306 C 301.422 406.666, 299.049 416.833, 297.836 417.872 C 296.912 418.664, 286.108 424.441, 273.828 430.711 C 230.816 452.671, 178.349 479, 177.598 479 C 176.843 479, 177.237 476.080, 179.016 468.500 C 180.208 463.418, 184.415 443.690, 191.491 410 C 194.552 395.425, 197.719 380.462, 198.528 376.750 C 199.338 373.038, 200.675 366.850, 201.500 363 C 202.325 359.150, 203.661 352.962, 204.469 349.250 C 205.276 345.538, 208.449 330.575, 211.519 316 C 214.589 301.425, 217.787 286.350, 218.625 282.500 C 219.463 278.650, 220.737 272.800, 221.456 269.500 C 222.175 266.200, 223.286 261.025, 223.923 258 C 224.561 254.975, 229.506 231.575, 234.912 206 C 240.318 180.425, 245.298 156.748, 245.979 153.384 C 246.659 150.020, 247.534 146.753, 247.923 146.125 C 248.441 145.286, 262.457 145.051, 300.619 145.241 L 352.609 145.500 345.420 181.500 C 341.465 201.300, 336.812 224.379, 335.079 232.788 C 333.346 241.196, 332.196 248.508, 332.523 249.038 C 332.883 249.620, 345.143 250, 363.570 250 L 394.023 250 407.669 229.250 C 415.175 217.838, 424.695 203.325, 428.824 197 C 432.954 190.675, 442.330 176.388, 449.659 165.250 L 462.984 145 521.433 145 C 553.580 145, 580.072 145.338, 580.303 145.750 C 580.535 146.162, 575.260 154.375, 568.580 164 C 561.900 173.625, 553.042 186.450, 548.897 192.500 C 544.751 198.550, 527.768 223.230, 511.156 247.344 C 494.545 271.459, 480.278 292.496, 479.451 294.094 C 478.101 296.705, 478.115 297.321, 479.586 300.166 C 480.992 302.884, 499.194 329.916, 516.510 355 C 519.358 359.125, 524.612 366.775, 528.186 372 C 531.760 377.225, 542.715 393.200, 552.531 407.500 C 562.346 421.800, 572.371 436.425, 574.807 440 C 580.834 448.842, 582.955 451, 585.619 451 C 588.779 451, 591.100 448.616, 604.605 431.500 C 639.991 386.652, 644.904 379.985, 646.444 374.719 C 647.752 370.249, 650.068 360.341, 659.702 318 C 660.515 314.425, 661.550 309.925, 662 308 C 662.450 306.075, 663.493 301.575, 664.317 298 C 665.141 294.425, 668.377 280.475, 671.509 267 C 677.541 241.040, 682.402 220.075, 684.492 211 C 685.189 207.975, 690.147 186.600, 695.509 163.500 C 708.418 107.889, 710.182 100.262, 712.390 90.500 C 713.137 87.200, 715.645 76.400, 717.964 66.500 C 725.037 36.307, 725.070 36.104, 723.567 32.506 C 722.839 30.763, 721.002 28.360, 719.486 27.168 L 716.730 25 426.615 25.040 C 180.935 25.074, 136.109 25.293, 133.945 26.470 M 815 111 L 815 156 834.364 156 C 845.013 156, 856.151 155.548, 859.114 154.995 C 865.494 153.804, 875.053 149.287, 880.142 145.059 C 888.891 137.789, 895 124.090, 895 111.742 C 895 94.255, 887.874 80.928, 874.025 72.515 C 865.185 67.145, 858.543 66.032, 835.250 66.015 L 815 66 815 111 M 1035.955 68.033 C 987.309 74.822, 952.891 113.019, 950.309 163.084 C 947.568 216.229, 976.722 257.993, 1025.758 271.166 C 1035.151 273.689, 1056.118 274.191, 1065.500 272.117 C 1080.520 268.798, 1096.785 260.147, 1106 250.578 L 1110.500 245.905 1111 257.702 L 1111.500 269.500 1134.750 269.768 L 1158 270.037 1158 170.500 L 1158 70.963 1134.750 71.232 L 1111.500 71.500 1111.216 82.270 L 1110.932 93.040 1103.716 86.939 C 1086.466 72.357, 1059.294 64.775, 1035.955 68.033 M 1240.149 68.156 C 1230.533 69.532, 1216.785 74.308, 1208.720 79.075 C 1199.560 84.487, 1188.398 95.672, 1184.239 103.603 C 1172.673 125.662, 1177.919 153.613, 1196.360 168.191 C 1207.048 176.639, 1221.178 182.036, 1246.887 187.490 C 1286.420 195.878, 1293 199.135, 1293 210.319 C 1293 224.889, 1280.782 233.263, 1259.677 233.159 C 1247.088 233.096, 1238.603 230.686, 1229.760 224.660 C 1224.348 220.973, 1217.249 213.076, 1213.491 206.566 C 1212.582 204.990, 1210.417 205.814, 1191.491 214.930 C 1178.174 221.345, 1170.547 225.557, 1170.627 226.452 C 1170.877 229.216, 1180.573 242.602, 1186.721 248.670 C 1198.581 260.377, 1215.696 268.686, 1235 272.108 C 1245.301 273.934, 1270.461 273.712, 1280.171 271.709 C 1308.279 265.911, 1330.317 247.182, 1337.404 223.068 C 1339.422 216.200, 1339.474 202.239, 1337.508 194.693 C 1332.769 176.500, 1318.691 163.601, 1294.979 155.727 C 1290.842 154.354, 1278.242 151.132, 1266.979 148.567 C 1230.546 140.271, 1225 137.249, 1225 125.689 C 1225 121.087, 1227.912 115.589, 1232.318 111.868 C 1238.622 106.546, 1257.304 104.365, 1269.465 107.533 C 1280.023 110.283, 1290.976 117.846, 1296.208 126 L 1297.812 128.500 1317.156 118.592 C 1327.795 113.142, 1336.656 108.561, 1336.846 108.412 C 1337.434 107.951, 1331.466 99.734, 1326.667 94.397 C 1317.291 83.969, 1302.390 75.006, 1287.852 71.049 C 1274.120 67.312, 1254.402 66.116, 1240.149 68.156 M 1439.208 68.006 C 1406.146 72.641, 1378.196 91.823, 1364.282 119.427 C 1356.115 135.628, 1352.824 150.308, 1352.919 170.100 C 1353.019 190.766, 1356.440 205.469, 1364.924 221.700 C 1379.842 250.237, 1407.955 269.501, 1440.001 273.145 C 1457.113 275.091, 1473.563 272.254, 1488.467 264.787 C 1496.532 260.746, 1505.770 254.104, 1510.301 249.089 L 1514 244.994 1514 257.497 L 1514 270 1537 270 L 1560 270 1560 170.500 L 1560 71 1537 71 L 1514 71 1514 82.645 L 1514 94.290 1508.750 89.348 C 1498.427 79.629, 1487.339 73.758, 1472.188 69.988 C 1462.982 67.697, 1447.884 66.790, 1439.208 68.006 M 1588 170.481 L 1588 270 1610.950 270 L 1633.901 270 1634.200 208.750 C 1634.498 147.816, 1634.512 147.467, 1636.787 141.171 C 1639.730 133.028, 1642.914 128.041, 1647.680 124.110 C 1658.647 115.065, 1680.015 113.607, 1695.490 120.849 L 1701.728 123.768 1709.972 103.134 C 1714.507 91.785, 1718.429 81.968, 1718.689 81.318 C 1719.818 78.494, 1704.820 73.273, 1691.706 71.924 C 1667.679 69.453, 1647.173 77.669, 1636.856 93.898 L 1634.060 98.297 1633.780 84.898 L 1633.500 71.500 1610.750 71.231 L 1588 70.962 1588 170.481 M 1037.848 112.372 C 1019.431 117.824, 1004.866 131.960, 998.900 150.172 C 995.531 160.459, 995.452 179.138, 998.735 189.593 C 1009.503 223.885, 1048.378 240.572, 1080.896 224.858 C 1096.101 217.511, 1107.899 202.455, 1112.128 185 C 1113.939 177.526, 1113.687 161.968, 1111.627 154.072 C 1106.117 132.950, 1090.118 116.775, 1069.540 111.522 C 1060.704 109.266, 1047.109 109.631, 1037.848 112.372 M 1443.217 111.449 C 1435.280 113.371, 1424.193 119.263, 1417.858 124.925 C 1410.455 131.542, 1405.314 139.452, 1401.592 149.956 C 1398.851 157.690, 1398.574 159.591, 1398.673 170 C 1398.763 179.441, 1399.247 182.946, 1401.380 189.578 C 1412.669 224.677, 1451.086 240.869, 1483.990 224.398 C 1503.717 214.523, 1516.028 193.819, 1515.985 170.590 C 1515.960 156.799, 1512.708 145.848, 1505.350 134.777 C 1497.698 123.263, 1486.186 115.176, 1472.339 111.588 C 1465.051 109.699, 1450.725 109.631, 1443.217 111.449 M 1332 363.621 L 1332 401.242 1325.058 394.693 C 1316.972 387.065, 1304.067 380.201, 1291.500 376.842 C 1285.022 375.111, 1280.646 374.703, 1268.500 374.698 C 1255.368 374.692, 1252.283 375.022, 1243.722 377.350 C 1221.940 383.272, 1202.059 396.791, 1189.794 414.020 C 1176.698 432.417, 1170.760 451.875, 1170.879 476 C 1171.041 508.992, 1180.510 532.712, 1201.643 553.068 C 1213.739 564.720, 1224.308 571.037, 1241 576.593 C 1249.017 579.261, 1250.495 579.424, 1267 579.447 C 1282.578 579.470, 1285.324 579.216, 1292 577.136 C 1304.253 573.317, 1316.147 566.608, 1324.516 558.792 L 1332 551.802 1332 563.901 L 1332 576 1355 576 L 1378 576 1378 451 L 1378 326 1355 326 L 1332 326 1332 363.621 M 768 452.500 L 768 576 791.500 576 L 815 576 815 533.361 L 815 490.721 828.156 474.419 L 841.312 458.116 873.256 516.308 C 890.826 548.314, 905.523 574.845, 905.917 575.267 C 906.311 575.689, 918.424 575.914, 932.835 575.767 L 959.036 575.500 922.920 511.500 C 903.057 476.300, 883.977 442.494, 880.521 436.375 L 874.238 425.250 913.249 377.375 L 952.259 329.500 924.894 329.233 C 909.843 329.087, 897.045 329.152, 896.455 329.379 C 895.865 329.605, 877.408 352.089, 855.441 379.342 L 815.500 428.893 815.241 378.947 L 814.982 329 791.491 329 L 768 329 768 452.500 M 1035.961 375.525 C 1008.390 379.825, 982.454 396.522, 967.269 419.749 C 960.417 430.228, 956.613 438.640, 953.214 450.824 C 950.756 459.637, 950.523 461.971, 950.607 477 C 950.687 491.385, 951.029 494.744, 953.280 503.206 C 963.779 542.672, 995.041 571.843, 1034.434 578.932 C 1042.077 580.308, 1062.923 580.308, 1070.566 578.932 C 1105.141 572.710, 1135.660 547.758, 1148.140 515.509 C 1154.740 498.453, 1156.756 477.287, 1153.532 458.881 C 1143.833 403.498, 1092.043 366.780, 1035.961 375.525 M 1483.835 375.472 C 1437.849 383.014, 1403.296 419.385, 1398.021 465.803 C 1396.824 476.342, 1398.155 494.411, 1400.926 505.224 C 1409.969 540.516, 1436.016 566.514, 1472.558 576.723 C 1481.933 579.342, 1483.640 579.498, 1502.500 579.472 C 1521.169 579.445, 1523.165 579.260, 1532.500 576.697 C 1557.393 569.860, 1578.046 554.419, 1591.263 532.760 C 1594.671 527.177, 1594.863 526.503, 1593.299 525.628 C 1592.349 525.096, 1583.961 520.237, 1574.659 514.831 C 1565.357 509.424, 1557.466 505.013, 1557.123 505.030 C 1556.780 505.046, 1554.938 507.787, 1553.029 511.120 C 1546.057 523.291, 1533.401 533.025, 1519.310 537.054 C 1509.983 539.722, 1494.085 539.707, 1483.585 537.022 C 1473.581 534.463, 1467.056 530.876, 1459.367 523.707 C 1450.816 515.735, 1446.247 508.273, 1442.558 496.256 L 1441.869 494.012 1522.185 493.756 L 1602.500 493.500 1602.247 478.644 C 1601.704 446.686, 1593.046 423.555, 1574.500 404.514 C 1561.379 391.042, 1545.855 382.131, 1527.315 377.428 C 1514.956 374.293, 1496.178 373.448, 1483.835 375.472 M 1490 415.622 C 1470.056 419.507, 1453.044 433.136, 1445.529 451.250 L 1443.973 455 1499.595 455 L 1555.217 455 1554.571 452.250 C 1553.206 446.441, 1547.630 436.715, 1542.468 431.139 C 1536.721 424.931, 1528.957 420.230, 1520 417.536 C 1514.575 415.905, 1494.972 414.654, 1490 415.622 M 1267.972 416.956 C 1259.567 418.071, 1249.629 421.732, 1243.007 426.154 C 1211.282 447.339, 1207.109 493.354, 1234.450 520.500 C 1246.391 532.356, 1258.530 537.345, 1275.500 537.369 C 1292.694 537.394, 1306.918 531.323, 1318.028 519.218 C 1340.038 495.237, 1339.350 456.595, 1316.501 433.390 C 1304.077 420.773, 1285.820 414.591, 1267.972 416.956 M 1037.500 419.892 C 1027.506 422.806, 1020.965 426.805, 1012.973 434.888 C 997.810 450.221, 992.373 471.498, 997.997 493.489 C 1008.965 536.374, 1061.152 551.226, 1091.937 520.223 C 1103.716 508.360, 1109.257 495.048, 1109.306 478.500 C 1109.378 453.582, 1097.915 433.941, 1077.267 423.603 C 1065.808 417.867, 1049.625 416.356, 1037.500 419.892" stroke="none" fill="#46F2B6" fill-rule="evenodd"/></svg>
